<svg height="28" version="1.0" width="28" xmlns="http://www.w3.org/2000/svg"><path d=" M 5.564259612588307,20.891367073488937 C 5.786713133735643,18.00610900663491 8.151508428010537,15.992887893517702 10.930867456033244,17.083409902165748 C 12.444830293643015,17.26830592717202 13.781947387792,16.12877665648768 15.714365552488381,13.50464308070744 L 19.71032745469632,10.802598622809048 L 14.957862345282672,10.458822874839903 C 12.784441953276751,10.228599060121773 10.378678505036914,10.557524209057839 9.909064148721162,11.162237615824157 C 7.8445119432294,12.489582068608264 3.7327135683590096,11.132725619958117 3.9001084973902405,9.08771407226226 C 4.052472268433102,7.966636186020286 5.884328443248763,7.061850300141197 7.665328769266673,6.469507017276425 C 9.970930815394894,6.2317753697686795 12.081571739825842,5.590027779146283 13.033222283845205,4.976801973504001 C 13.706671255084697,4.163017778488349 14.229332546771163,4.310603386449745 14.963099714584832,5.169505590400577 C 15.937727678030717,5.259479940517331 17.521952567011414,5.939585105122351 18.488411552040972,6.037242624696072 C 22.6684848073424,5.871077468320852 23.74042408617717,9.24201519424289 21.1827620566105,13.867195502760449 C 20.361427436217443,16.62110600599182 20.398368433436843,16.82217668683159 22.249686249901114,16.57821818258612 C 23.289968460146476,17.09555266766612 23.810015547248256,17.80074736744404 23.699113103621894,18.882447480610665 C 23.84091239700555,21.10729396826103 21.853875117326098,21.89153004303852 12.373347452955532,22.940126713230008 C 6.745861180704608,22.74549463498123 6.291367086205154,22.590691033567882 6.274036031213331,20.986138505402838 Z" /></svg>