<svg height="28" version="1.0" width="28" xmlns="http://www.w3.org/2000/svg"><path d=" M 5.5096441816737425,20.643889273125115 C 5.806257321162583,18.1234235562943 8.171915949022049,15.924796447928355 11.125788109448285,17.287695388042803 C 12.442048978927033,17.340993646496088 13.632262304500664,16.07580093566186 15.57270924264525,13.282512212053136 L 19.7763444712296,10.856293073248986 L 15.108076140211477,10.604126140536497 C 12.677926089463382,10.292428789201757 10.364351150587,10.547621585318291 9.838937439366793,11.243648018431252 C 7.893545488173085,12.486784512655932 3.7903958574243877,11.118624910463854 3.8877955351458473,8.925332965324998 C 4.105104714449052,8.108552678841864 5.833029299028628,7.054573763514143 7.719652675561954,6.5664350902238455 C 9.991164694009015,6.250217376992446 12.190299140832693,5.399333621793447 13.133852068035191,5.141431142249486 C 13.869386431344711,4.2433432669710935 14.31614174318526,4.258797106445981 14.927561132909831,5.136596885094817 C 16.041575406111,5.274081829711297 17.457834312943106,5.909131171073402 18.524834481781554,6.0858383819363455 C 22.75877713254047,5.881741675815547 23.677198882973087,9.269799158663167 21.142001583186108,13.996070501052177 C 20.505485409300647,16.636854780567507 20.336623647989335,16.75801853011591 22.354601564273985,16.588110698517955 C 23.147718266580426,17.130974657867856 23.850831945762067,17.90489531526402 23.415752561210883,18.918338572505366 C 23.75209730358174,21.155727121849168 21.817691076546026,21.89498585436795 12.5665305687756,23.00260767255665 C 6.754468328267164,22.73924712553724 6.435356418011474,22.71089083453864 6.205985130753788,20.812336705766526 Z" /></svg>