<svg height="28" version="1.0" width="28" xmlns="http://www.w3.org/2000/svg"><path d=" M 10.666666666666668,25.333333333333336 C 9.635812728784277,24.302479395450945 9.879226334901215,18.094184749300315 10.581957196840127,15.922900355792816 C 11.929092527423098,14.263974732626458 11.732436757472726,13.999999999999998 9.594200752862942,13.999999999999998 C 6.51993084412796,13.999999999999998 5.591165240546602,12.632431827590665 6.9460789650866595,10.100752375344275 C 8.556106833507517,7.092387784891244 16.29013089061219,5.434705612802055 21.92431402670948,6.890372753082216 C 22.61477295717913,7.068762122493779 17.724439342545065,12.0 16.857070769629228,12.0 C 16.420205122305738,12.000000000000002 16.323749704854585,11.319896729470422 16.642725397515555,10.488659398823156 C 17.073737639156146,9.36545950158705 16.766728796106726,9.143553970385486 15.44729568682034,9.658598143121019 C 14.140620981161124,10.160016274806315 13.886598544831719,9.99250440321093 14.485108033839115,9.024095707407632 C 15.1189585994579,7.998503948448096 14.658910161848368,7.866358249165577 12.417191878085978,8.424919683907584 C 10.804618826688028,8.81905285063601 9.053761646075056,9.578420571161557 8.508359213500123,10.112403507297687 C 7.03382138020928,11.556067845109885 9.99976008665443,13.145149396094206 13.113093303277832,12.57951382665575 C 16.587945226940235,11.94819693578764 21.51725741884018,16.79490568409691 20.538066690805877,19.880062477729325 C 19.28454276556301,23.829566637871164 12.7646777904117,27.43134445707836 10.666666666666668,25.333333333333336 M 16.92997690861897,21.585075626509834 C 19.973983724960885,18.33433939163806 18.999136019201163,14.74736197663322 15.179395492131144,15.191860870457667 C 12.310946064247144,15.526305467714762 10.195561521451062,19.46128363736486 11.316724541726854,22.382987634368206 C 12.199292340398577,24.682922450601545 14.289409140022745,24.378543398725117 16.920075598766722,21.585075626509834 Z" /></svg>